<?xml version="1.0" encoding="UTF-8" standalone="no"?>
<!-- Created with Inkscape (http://www.inkscape.org/) -->

<svg
   id="svg2"
   height="64"
   viewBox="0 0 64 64"
   width="64"
   sodipodi:docname="remote-play.svg"
   inkscape:version="1.2-dev (d2dd25d878, 2022-02-01, custom)"
   version="1.1"
   xml:space="preserve"
   inkscape:export-filename="remote-play.svg"
   inkscape:export-xdpi="96"
   inkscape:export-ydpi="96"
   xmlns:inkscape="http://www.inkscape.org/namespaces/inkscape"
   xmlns:sodipodi="http://sodipodi.sourceforge.net/DTD/sodipodi-0.dtd"
   xmlns="http://www.w3.org/2000/svg"
   xmlns:svg="http://www.w3.org/2000/svg"><defs
     id="defs1" /><sodipodi:namedview
     id="namedview1"
     pagecolor="#ffffff"
     bordercolor="#000000"
     borderopacity="0.25"
     inkscape:showpageshadow="2"
     inkscape:pageopacity="0.0"
     inkscape:pagecheckerboard="0"
     inkscape:deskcolor="#d1d1d1"
     showguides="true"
     inkscape:zoom="12.375"
     inkscape:cx="37.414141"
     inkscape:cy="31.838384"
     inkscape:window-width="1920"
     inkscape:window-height="1008"
     inkscape:window-x="0"
     inkscape:window-y="0"
     inkscape:window-maximized="1"
     inkscape:current-layer="svg2"
     inkscape:export-bgcolor="#00000000" /><style
     type="text/css"
     id="current-color-scheme">.ColorScheme-Text { color:#ffffff; }
</style><g
     id="start-here-kde"><rect
       style="opacity:1.01725e-06;fill:#808080;fill-rule:evenodd"
       id="rect1101"
       width="64"
       height="64"
       x="0"
       y="0" /><path
       id="path42220"
       d="M 32,4 V 14 A 18,18 0 0 1 50,32 18,18 0 0 1 32,50 V 60 A 28,28 0 0 0 60,32 28,28 0 0 0 32,4 Z"
       style="fill:currentColor;fill-rule:evenodd"
       class="ColorScheme-Text" /><circle
       id="path43518"
       cx="32"
       cy="32"
       r="14"
       style="fill:#1a9fff;fill-rule:evenodd" /></g><g
     transform="matrix(0.18268353,0,0,0.18268353,22.86693,-149.91716)"
     display="inline"
     id="g10"
     style="fill:#000000;stroke:#000000"><path
       stroke-width="3.22272"
       stroke-linecap="round"
       stroke-linejoin="round"
       stroke-miterlimit="4"
       stroke-dasharray="none"
       id="path1"
       d="m 2.9794307,1027.5305 c 0.9761562,-8.1393 3.2870838,-19.0454 5.5202379,-26.3014 2.2331644,-7.25601 4.5208584,-14.02099 7.9084614,-16.42625 4.01104,-1.78182 4.035913,-1.73292 8.046133,-2.28236 4.01022,-0.54944 9.813584,-0.97308 16.098398,-0.97308 h 18.854431 c 6.284814,0 12.117522,0.14069 16.126326,0.83414 4.008805,0.69344 4.078534,0.5219 7.882553,2.55695 2.940798,2.70644 5.939562,8.968 8.091263,16.2633 2.1517,7.2954 4.322924,18.4905 5.473087,26.3287 1.150161,7.8382 -2.087701,15.8146 -6.386601,18.0425 -4.298891,2.2279 -4.050849,2.5789 -9.963254,2.7507 -5.912405,0.1717 -7.893183,-20.8396 -16.611496,-20.861 -8.718312,-0.021 -19.045365,-0.047 -27.671261,-0.067 -8.625895,-0.022 -11.010955,21.8383 -17.09107,20.889 -6.080106,-0.9493 -4.945855,-0.9964 -9.255504,-2.6164 -4.3096581,-1.6199 -7.9978703,-9.9976 -7.0217043,-18.137 z"
       opacity="1"
       style="fill:#000000;fill-opacity:1;stroke:#000000;stroke-opacity:1"
       class="ColorScheme-Text"
       inkscape:highlight-color="#f9f9f9" /><path
       d="M 35.546327,999.79156 A 11.406514,11.737721 0 0 1 24.188401,1011.5292 11.406514,11.737721 0 0 1 12.733712,999.89156 11.406514,11.737721 0 0 1 23.994051,988.0548 11.406514,11.737721 0 0 1 35.544671,999.59158"
       fill="none"
       stroke="#000000"
       stroke-width="0.898827"
       stroke-linecap="round"
       stroke-linejoin="round"
       stroke-miterlimit="4"
       stroke-dasharray="none"
       stroke-opacity="1"
       id="path2"
       style="display:none;fill:#000000;fill-opacity:1;stroke:#000000" /><rect
       width="5.2273359"
       height="2.9253955"
       x="39.522812"
       y="997.67377"
       rx="1.3428012"
       ry="1.3428012"
       display="none"
       fill="#000000"
       fill-opacity="1"
       fill-rule="evenodd"
       stroke="#000000"
       stroke-width="0.26856"
       stroke-linecap="round"
       stroke-linejoin="round"
       stroke-miterlimit="4"
       stroke-dasharray="none"
       stroke-opacity="1"
       id="rect2"
       style="fill:#000000;fill-opacity:1;stroke:#000000" /><path
       d="m 87.362081,1000.1306 a 11.406514,11.737721 0 0 1 -11.357926,11.7376 11.406514,11.737721 0 0 1 -11.454689,-11.6376 11.406514,11.737721 0 0 1 11.260338,-11.83675 11.406514,11.737721 0 0 1 11.550621,11.53678"
       display="none"
       fill="none"
       stroke="#000000"
       stroke-width="0.898827"
       stroke-linecap="round"
       stroke-linejoin="round"
       stroke-miterlimit="4"
       stroke-dasharray="none"
       stroke-opacity="1"
       id="path3"
       style="fill:#000000;fill-opacity:1;stroke:#000000" /><path
       d="m 53.743969,997.91351 a 3.5746768,3.5746768 0 0 1 -3.559453,3.57469 3.5746768,3.5746768 0 0 1 -3.589771,-3.54424 3.5746768,3.5746768 0 0 1 3.528879,-3.60483 3.5746768,3.5746768 0 0 1 3.619827,3.51349"
       display="none"
       fill="#000000"
       fill-opacity="1"
       fill-rule="evenodd"
       stroke="#000000"
       stroke-width="0.312784"
       stroke-linecap="round"
       stroke-linejoin="round"
       stroke-miterlimit="4"
       stroke-dasharray="none"
       stroke-opacity="1"
       id="path4"
       style="fill:#000000;fill-opacity:1;stroke:#000000" /><rect
       width="5.2273359"
       height="2.9253955"
       x="55.420605"
       y="997.74567"
       rx="1.3428012"
       ry="1.3428012"
       display="none"
       fill="#000000"
       fill-opacity="1"
       fill-rule="evenodd"
       stroke="#000000"
       stroke-width="0.26856"
       stroke-linecap="round"
       stroke-linejoin="round"
       stroke-miterlimit="4"
       stroke-dasharray="none"
       stroke-opacity="1"
       id="rect4"
       style="fill:#000000;fill-opacity:1;stroke:#000000" /><path
       d="m 24.100071,991.29185 v 17.33345 m -8.353704,-8.83048 h 16.955429"
       display="none"
       fill="none"
       stroke="#000000"
       stroke-width="2.14848"
       stroke-linecap="round"
       stroke-linejoin="round"
       stroke-miterlimit="4"
       stroke-dasharray="none"
       stroke-opacity="1"
       id="path5"
       style="fill:#000000;fill-opacity:1;stroke:#000000" /><circle
       cx="39.060574"
       cy="1013.5593"
       r="7.4050636"
       fill="none"
       stroke="#000000"
       stroke-width="0.91633"
       stroke-linecap="round"
       stroke-linejoin="round"
       stroke-miterlimit="4"
       stroke-dasharray="none"
       stroke-opacity="1"
       id="circle5"
       style="display:none;fill:#000000;fill-opacity:1;stroke:#000000" /><circle
       cx="39.060574"
       cy="1013.5757"
       r="5.0947471"
       display="none"
       fill="#000000"
       fill-opacity="1"
       fill-rule="evenodd"
       stroke="#000000"
       stroke-width="0.387965"
       stroke-linecap="round"
       stroke-linejoin="round"
       stroke-miterlimit="4"
       stroke-dasharray="none"
       stroke-opacity="1"
       id="circle6"
       style="fill:#000000;fill-opacity:1;stroke:#000000" /><circle
       cx="61.441746"
       cy="1008.1171"
       r="2.5325294"
       display="none"
       fill="#000000"
       fill-opacity="1"
       fill-rule="evenodd"
       stroke="#000000"
       stroke-width="0.29495"
       stroke-linecap="round"
       stroke-linejoin="round"
       stroke-miterlimit="4"
       stroke-dasharray="none"
       stroke-opacity="1"
       id="circle7"
       style="fill:#000000;fill-opacity:1;stroke:#000000" /><circle
       cx="55.972126"
       cy="1013.5475"
       r="2.5325294"
       display="none"
       fill="#000000"
       fill-opacity="1"
       fill-rule="evenodd"
       stroke="#000000"
       stroke-width="0.29495"
       stroke-linecap="round"
       stroke-linejoin="round"
       stroke-miterlimit="4"
       stroke-dasharray="none"
       stroke-opacity="1"
       id="circle8"
       style="fill:#000000;fill-opacity:1;stroke:#000000" /><circle
       cx="66.906364"
       cy="1013.5955"
       r="2.5325294"
       display="none"
       fill="#000000"
       fill-opacity="1"
       fill-rule="evenodd"
       stroke="#000000"
       stroke-width="0.29495"
       stroke-linecap="round"
       stroke-linejoin="round"
       stroke-miterlimit="4"
       stroke-dasharray="none"
       stroke-opacity="1"
       id="circle9"
       style="fill:#000000;fill-opacity:1;stroke:#000000" /><circle
       cx="61.487206"
       cy="1019.1585"
       r="2.5325294"
       display="none"
       fill="#000000"
       fill-opacity="1"
       fill-rule="evenodd"
       stroke="#000000"
       stroke-width="0.29495"
       stroke-linecap="round"
       stroke-linejoin="round"
       stroke-miterlimit="4"
       stroke-dasharray="none"
       stroke-opacity="1"
       id="circle10"
       style="fill:#000000;fill-opacity:1;stroke:#000000" /></g><circle
     style="fill:#ffffff;stroke-width:1.6875"
     id="path6-1"
     cx="32"
     cy="25.799999"
     r="1.5" /><circle
     style="fill:#ffffff;stroke-width:1.6875"
     id="path6-0"
     cx="32"
     cy="21.299994"
     r="1.5" /><path
     style="fill:#ffffff;fill-opacity:1;stroke:#ffffff;stroke-width:0.0808081;stroke-opacity:1"
     d="m 25.593951,41.691655 c -0.681631,-0.165148 -1.304209,-0.485114 -1.600477,-0.822545 -0.577953,-0.658252 -0.934331,-1.894835 -0.844331,-2.929716 0.130893,-1.505087 0.71266,-4.107632 1.305617,-5.840692 0.723668,-2.115097 1.115198,-2.494523 2.872928,-2.784119 0.70277,-0.115786 1.456683,-0.137825 4.793524,-0.14013 3.014864,-0.0021 4.104198,0.02369 4.565657,0.108027 1.316315,0.240567 1.756531,0.547708 2.331373,1.626611 0.642809,1.206466 1.218323,3.283857 1.682252,6.072306 0.20429,1.22789 0.215558,1.401446 0.129376,1.99274 -0.114477,0.785424 -0.459983,1.579882 -0.861858,1.981756 -0.163584,0.163584 -0.523307,0.412732 -0.799385,0.553662 -0.417468,0.213105 -0.618391,0.262186 -1.193665,0.291581 -0.691171,0.03532 -0.691907,0.03514 -0.953304,-0.226254 -0.151545,-0.151545 -0.517678,-0.79281 -0.870305,-1.5243 -0.334789,-0.694487 -0.698591,-1.380923 -0.80845,-1.525414 -0.382922,-0.503639 -0.391839,-0.504966 -3.393146,-0.504966 h -2.724936 l -0.340458,0.355323 c -0.232497,0.242646 -0.546764,0.777103 -0.991036,1.685399 -0.891019,1.821653 -1.048981,1.93368 -2.299376,1.630731 z"
     id="path12" /></svg>
