<?xml version="1.0" encoding="UTF-8" standalone="no"?>
<svg
   width="48"
   height="48"
   version="1.0"
   id="svg38"
   sodipodi:docname="org.fedoraproject.AnacondaInstaller.svg"
   inkscape:version="1.2.1 (9c6d41e410, 2022-07-14)"
   xmlns:inkscape="http://www.inkscape.org/namespaces/inkscape"
   xmlns:sodipodi="http://sodipodi.sourceforge.net/DTD/sodipodi-0.dtd"
   xmlns:xlink="http://www.w3.org/1999/xlink"
   xmlns="http://www.w3.org/2000/svg"
   xmlns:svg="http://www.w3.org/2000/svg"
   xmlns:rdf="http://www.w3.org/1999/02/22-rdf-syntax-ns#"
   xmlns:cc="http://creativecommons.org/ns#"
   xmlns:dc="http://purl.org/dc/elements/1.1/">
  <metadata
     id="metadata42">
    <rdf:RDF>
      <cc:Work
         rdf:about="">
        <dc:format>image/svg+xml</dc:format>
        <dc:type
           rdf:resource="http://purl.org/dc/dcmitype/StillImage" />
        <dc:title />
      </cc:Work>
    </rdf:RDF>
  </metadata>
  <sodipodi:namedview
     pagecolor="#ffffff"
     bordercolor="#666666"
     borderopacity="1"
     objecttolerance="10"
     gridtolerance="10"
     guidetolerance="10"
     inkscape:pageopacity="0"
     inkscape:pageshadow="2"
     inkscape:window-width="3840"
     inkscape:window-height="2080"
     id="namedview40"
     showgrid="false"
     inkscape:zoom="8.015625"
     inkscape:cx="64.187135"
     inkscape:cy="64.187135"
     inkscape:window-x="0"
     inkscape:window-y="0"
     inkscape:window-maximized="1"
     inkscape:current-layer="svg38"
     inkscape:showpageshadow="2"
     inkscape:pagecheckerboard="0"
     inkscape:deskcolor="#d1d1d1" />
  <defs
     id="defs16">
    <linearGradient
       xlink:href="#a"
       id="b"
       gradientUnits="userSpaceOnUse"
       gradientTransform="matrix(0.23214,0,0,0.32895,-8.567,435.827)"
       x1="88.596001"
       y1="-449.39401"
       x2="536.59601"
       y2="-449.39401" />
    <linearGradient
       id="a">
      <stop
         offset="0"
         stop-color="#acabae"
         id="stop3" />
      <stop
         offset=".038"
         stop-color="#f7f7f7"
         id="stop5" />
      <stop
         offset=".077"
         stop-color="#deddda"
         id="stop7" />
      <stop
         offset=".923"
         stop-color="#b0afad"
         id="stop9" />
      <stop
         offset=".962"
         stop-color="#c0bfbc"
         id="stop11" />
      <stop
         offset="1"
         stop-color="#77767b"
         id="stop13" />
    </linearGradient>
    <linearGradient
       xlink:href="#a"
       id="b-2"
       gradientUnits="userSpaceOnUse"
       gradientTransform="matrix(0.08928462,0,0,0.12651921,-3.9103812,100.85653)"
       x1="88.596001"
       y1="-449.39401"
       x2="536.59601"
       y2="-449.39401" />
  </defs>
  <rect
     ry="3.0769227"
     rx="3.0769231"
     y="5.5384669"
     x="4"
     height="38.461533"
     width="40"
     style="fill:url(#b-2);stroke-width:0.384615;marker:none"
     fill="url(#b)"
     id="rect18" />
  <rect
     style="stroke-width:0.384615;marker:none"
     width="40"
     height="38.461533"
     x="4"
     y="4"
     rx="3.0769231"
     ry="3.0769227"
     fill="#ffffff"
     id="rect20" />
  <g
     transform="matrix(0.38461538,0,0,0.38461532,-40.615382,-207.34612)"
     color="#000000"
     id="g26">
    <rect
       ry="4"
       rx="4"
       y="625.5"
       x="128"
       height="8"
       width="80"
       style="marker:none"
       overflow="visible"
       fill="#e1dedb"
       id="rect22" />
    <rect
       ry="4"
       rx="4"
       y="625.5"
       x="128"
       height="8"
       width="48.125"
       style="marker:none"
       overflow="visible"
       fill="#3584e4"
       id="rect24" />
  </g>
  <path
     id="path28-3-3"
     style="fill:#51a2da;fill-opacity:1;fill-rule:nonzero;stroke:none;stroke-width:0.512819"
     d="m 24.774877,8.7068988 c -5.52505,0 -10.004242,4.4709502 -10.008467,9.9879402 v 7.734791 c 0.0033,1.252208 1.020133,2.266808 2.2753,2.266808 0.0033,0 0.0075,-3.84e-4 0.01075,-3.84e-4 v 3.84e-4 h 7.725817 c 5.525666,-0.0025 10.004908,-4.475941 10.004908,-9.99464 0,-5.519933 -4.480917,-9.9947658 -10.008467,-9.9947658 z m 2.028866,4.1123832 v 1.33e-4 c 1.680775,0 3.268,1.287017 3.268,3.059591 0,0.164425 -0.0017,0.327884 -0.02817,0.514934 -0.0465,0.471433 -0.477692,0.8093 -0.947442,0.742708 -0.470217,-0.06725 -0.789525,-0.511908 -0.70215,-0.977875 0.0075,-0.0525 0.01075,-0.136325 0.01075,-0.279767 0,-1.004833 -0.822008,-1.393258 -1.601167,-1.393258 -0.778691,0 -1.480608,0.6522 -1.483275,1.391367 v 2.558733 l 1.444742,-0.0105 c 1.127867,-0.02367 1.139408,1.674316 0.01158,1.666333 l -1.456275,0.0075 -0.0105,2.386983 c -0.174283,1.873441 -1.771483,3.371799 -3.690258,3.371799 -2.0337,0 -3.711417,-1.661425 -3.711417,-3.697349 0.06125,-2.0944 1.737109,-3.741291 3.842367,-3.721558 l 1.1727,-0.0075 v 1.663808 l -1.182458,0.0105 c -1.157309,0.03417 -2.146825,0.817867 -2.165775,2.055366 0,1.128209 0.913125,2.031042 2.045225,2.031042 1.131,0 2.033941,-0.821617 2.033941,-2.028625 v -6.293749 c 5.34e-4,-0.116625 0.0058,-0.210133 0.0195,-0.338966 0.190084,-1.539909 1.568842,-2.7134 3.129817,-2.7134 z" />
  <rect
     style="fill:#ffffff;stroke-width:0.384615"
     id="rect177"
     width="25.958916"
     height="22.072269"
     x="10.324794"
     y="8.4534426" />
  <path
     d="m 25.619927,19.487048 c 0,0.826166 -0.434417,1.550858 -1.087617,1.957891 -0.353408,0.220808 -0.7711,0.348217 -1.218492,0.348217 -1.273541,0 -2.306108,-1.03255 -2.306108,-2.306108 0,-1.273542 1.032567,-2.306108 2.306108,-2.306108 0.447392,0 0.865084,0.127408 1.218492,0.348225 0.6532,0.407024 1.087617,1.131716 1.087617,1.957883 z"
     id="path1719"
     style="stroke-width:0.0288265" />
  <path
     d="m 17.699643,29.020271 c -0.03933,0.06758 -0.08,0.133767 -0.123383,0.198775 -0.04608,0.07033 -0.0944,0.139417 -0.145067,0.206983 0.04317,-0.07475 0.08912,-0.147633 0.136867,-0.219141 0.04225,-0.06358 0.08621,-0.125934 0.131583,-0.186617 z"
     id="path1721"
     style="stroke-width:0.0357493" />
  <path
     d="m 17.699643,29.020271 c -0.03933,0.06758 -0.08,0.133767 -0.123383,0.198775 -0.0033,-0.0042 -0.0058,-0.0091 -0.0091,-0.01275 0.04225,-0.06358 0.08621,-0.12575 0.131591,-0.1866 z"
     id="path1723"
     style="stroke-width:0.0357493" />
  <path
     d="m 17.699643,29.020271 c -0.03933,0.06758 -0.08,0.133767 -0.123383,0.198775 -0.04608,0.07033 -0.0944,0.139417 -0.145067,0.206983 0.04317,-0.07475 0.08912,-0.147633 0.136867,-0.219141 0.04225,-0.06358 0.08621,-0.125934 0.131583,-0.186617 z"
     id="path1725"
     style="stroke-width:0.0357493" />
  <path
     d="m 34.844377,19.487048 v 8.071398 c 0,0.0042 0,0.01025 -3e-4,0.01467 -0.0075,1.903683 -1.553467,3.444741 -3.458884,3.444741 H 30.93636 C 29.23791,30.79764 27.926018,29.345641 27.926018,27.587524 v -7.111757 l 3.459175,-0.988466 -3.57275,-1.020734 c -0.464391,-2.056199 -2.302075,-3.591482 -4.49865,-3.591482 -2.547391,0 -4.612216,2.064824 -4.612216,4.612216 v 2.306116 c 0,1.273558 1.03255,2.306108 2.306108,2.306108 1.910333,0 3.459167,1.54885 3.459167,3.459174 v 3.833916 c 0,-0.709133 -0.213317,-1.368408 -0.579417,-1.916958 -0.62005,-0.92965 -1.678275,-1.542224 -2.87975,-1.542224 -1.135183,0 -2.142958,0.546841 -2.773675,1.391741 -0.03658,0.04892 -0.072,0.0992 -0.1061,0.150483 -0.03867,0.05758 -0.0755,0.116392 -0.110367,0.1767 -0.545675,0.732758 -1.375291,1.242142 -2.326283,1.365508 h -0.448833 c -1.905417,0 -3.451375,-1.541058 -3.458867,-3.444749 -3.58e-4,-0.0042 -3.58e-4,-0.01025 -3.58e-4,-0.01467 V 11.415649 c -3.4e-5,-1.9103082 1.548816,-3.4591584 3.459133,-3.4591584 1.101175,0 2.082425,0.5145499 2.71575,1.3165002 1.600292,-0.8408586 3.422408,-1.3165002 5.355792,-1.3165002 6.368041,0 11.530566,5.1625164 11.530566,11.5305574 z"
     id="path1727"
     style="stroke-width:0.0288265" />
  <line
     fill="none"
     x1="25.42938"
     y1="31.679668"
     x2="25.42938"
     y2="31.584211"
     id="line1729"
     style="stroke-width:0.0357493" />
</svg>
